<svg width="400" height="400" viewBox="0 0 400 400" fill="none" xmlns="http://www.w3.org/2000/svg">
<rect width="400" height="400" fill="#151515"/>
<path d="M160.933 310C143.486 310 130.4 305.502 121.677 296.506C113.226 287.509 109 275.651 109 260.929C109 248.662 112.135 238.575 118.405 230.669C124.948 222.491 132.717 216.221 141.714 211.859C150.983 207.497 162.705 202.862 176.881 197.955C191.875 192.776 202.779 188.141 209.595 184.052C216.683 179.69 220.227 173.829 220.227 166.468V134.573C220.227 123.123 217.501 114.263 212.048 107.993C206.869 101.45 198.69 98.1784 187.513 98.1784C174.428 98.1784 164.477 101.45 157.662 107.993C165.295 110.719 171.156 114.808 175.245 120.26C179.607 125.713 181.788 132.119 181.788 139.48C181.788 148.748 178.653 156.109 172.383 161.561C166.113 167.014 158.48 169.74 149.483 169.74C139.942 169.74 132.581 166.741 127.401 160.744C122.222 154.746 119.632 147.249 119.632 138.253C119.632 130.62 121.404 124.213 124.948 119.033C128.765 113.581 134.489 108.538 142.123 103.903C149.483 99.5415 158.48 96.1338 169.112 93.6803C180.016 91.2268 191.875 90 204.688 90C218.046 90 229.632 91.3631 239.446 94.0892C249.26 96.8154 257.439 101.45 263.981 107.993C269.979 113.99 273.932 121.351 275.84 130.074C278.021 138.798 279.112 150.657 279.112 165.651V276.877C279.112 283.42 279.657 288.055 280.747 290.781C282.11 293.507 284.564 294.87 288.108 294.87C292.197 294.87 297.104 292.553 302.829 287.918L306.918 294.87C294.651 304.957 279.657 310 261.937 310C246.943 310 236.447 307.001 230.45 301.004C224.452 295.006 221.317 286.964 221.045 276.877C207.414 298.959 187.377 310 160.933 310ZM192.42 283.829C203.052 283.829 212.321 278.24 220.227 267.063V183.234C216.955 188.686 210.004 194.684 199.372 201.227C188.74 208.042 180.698 214.857 175.245 221.673C169.793 228.488 167.067 238.302 167.067 251.115C167.067 262.292 169.384 270.607 174.019 276.059C178.653 281.239 184.787 283.829 192.42 283.829Z" fill="white"/>
</svg>
