<?xml version="1.0" encoding="utf-8"?>
<!-- Generator: Adobe Illustrator 17.0.0, SVG Export Plug-In . SVG Version: 6.00 Build 0)  -->
<!DOCTYPE svg PUBLIC "-//W3C//DTD SVG 1.1//EN" "http://www.w3.org/Graphics/SVG/1.1/DTD/svg11.dtd">
<svg version="1.1" id="Layer_1" xmlns="http://www.w3.org/2000/svg" xmlns:xlink="http://www.w3.org/1999/xlink" x="0px" y="0px"
	 width="24px" height="24px" viewBox="0 0 24 24" enable-background="new 0 0 24 24" xml:space="preserve">
<path fill="#FFFFFF" d="M6,18.573c2.206,0,4-1.794,4-4V4.428L19,7.7v7.43c-0.591-0.345-1.269-0.557-2-0.557c-2.206,0-4,1.794-4,4
	s1.794,4,4,4s4-1.794,4-4V7c0-0.421-0.263-0.796-0.658-0.939l-11-4c-0.308-0.113-0.648-0.067-0.915,0.12C8.159,2.368,8,2.674,8,3
	v8.13c-0.591-0.345-1.269-0.557-2-0.557c-2.206,0-4,1.794-4,4S3.794,18.573,6,18.573z"/>
</svg>
